#!OML:ASF X:\für Bonn\!DataBase\2005_08_12_Daniel\c3d\Daniel.ASF
:FULLY-SPECIFIED
:DEGREES
177
root 2.69819 17.6169 17.118 -5.6954 12.7988 -1.59266
lowerback 7.90055 1.96789 3.97713
upperback 0.571252 2.8064 -4.74451
thorax -3.40632 1.31758 -7.53044
lowerneck 3.75186 -5.88345 -3.10271
upperneck 18.4765 -8.5119 4.26675
head 5.27267 -4.10644 1.54278
rclavicle -1.2737e-014 1.27222e-014
rhumerus 38.1947 -1.65546 -54.8655
rradius 49.4449
rwrist 1.26723
rhand -21.1649 12.2292
rfingers 7.12502
rthumb 5.21515 -17.6866
lclavicle -1.2737e-014 1.27222e-014
lhumerus -39.5426 43.5503 55.8616
lradius 16.3737
lwrist -45.499
lhand -11.624 -6.12066
lfingers 7.12502
lthumb 14.4193 23.3585
rfemur 10.1131 16.5687 22.9731
rtibia 12.8067
rfoot -23.4232 -24.7685
rtoes -12.5397
lfemur -1.70214 -17.5494 -17.0755
ltibia 29.8167
lfoot -22.4868 4.20016
ltoes -14.8785
178
root 2.70305 17.6164 17.1173 -5.69593 12.6697 -1.58082
lowerback 7.87399 1.91006 3.93643
upperback 0.596321 2.72611 -4.71496
thorax -3.38124 1.27957 -7.46503
lowerneck 3.76055 -5.82009 -3.06406
upperneck 18.537 -8.41572 4.17784
head 5.28088 -4.06151 1.51275
rclavicle -1.52676e-014 -1.11319e-014
rhumerus 37.0661 -1.40564 -54.7431
rradius 51.5238
rwrist 0.526802
rhand -21.0907 12.431
rfingers 7.12502
rthumb 5.28677 -17.483
lclavicle -1.52676e-014 -1.11319e-014
lhumerus -39.2393 43.073 56.3687
lradius 16.511
lwrist -44.9695
lhand -11.4993 -6.09045
lfingers 7.12502
lthumb 14.5395 23.38
rfemur 10.1062 16.6791 22.9531
rtibia 12.8114
rfoot -23.4321 -24.731
rtoes -12.4978
lfemur -1.65771 -17.5014 -17.1123
ltibia 29.8055
lfoot -22.5064 4.27153
ltoes -14.8285
179
root 2.70709 17.6162 17.1168 -5.70736 12.5402 -1.58102
lowerback 7.84553 1.84246 3.87488
upperback 0.633219 2.63194 -4.65838
thorax -3.34689 1.23559 -7.35668
lowerneck 3.79496 -5.73557 -3.0814
upperneck 18.5564 -8.29365 4.11996
head 5.27458 -4.00683 1.50376
rclavicle -1.26725e-014 -3.65764e-014
rhumerus 35.9305 -1.11356 -54.5793
rradius 53.6579
rwrist -0.292623
rhand -20.9601 12.6624
rfingers 7.12502
rthumb 5.41286 -17.2484
lclavicle -1.26725e-014 -3.65764e-014
lhumerus -38.9654 42.6451 56.8723
lradius 16.6444
lwrist -44.3498
lhand -11.4109 -6.0975
lfingers 7.12502
lthumb 14.6246 23.3668
rfemur 10.1064 16.7718 22.9506
rtibia 12.8168
rfoot -23.4167 -24.6973
rtoes -12.5084
lfemur -1.60687 -17.4494 -17.1345
ltibia 29.7933
lfoot -22.5244 4.3359
ltoes -14.7791
180
root 2.71151 17.6155 17.1156 -5.70792 12.41 -1.56806
lowerback 7.8258 1.77491 3.81619
upperback 0.655661 2.53753 -4.61806
thorax -3.33134 1.19031 -7.26861
lowerneck 3.85046 -5.65478 -3.06484
upperneck 18.5775 -8.17343 4.03711
head 5.26315 -3.95254 1.4821
rclavicle 3.89509e-014 -3.97569e-014
rhumerus 34.7666 -0.823308 -54.4669
rradius 55.7997
rwrist -1.08527
rhand -20.8206 12.8951
rfingers 7.12502
rthumb 5.5476 -17.0123
lclavicle 3.89509e-014 -3.97569e-014
lhumerus -38.7028 42.1648 57.3754
lradius 16.7969
lwrist -43.7144
lhand -11.3283 -6.0574
lfingers 7.12502
lthumb 14.7042 23.4011
rfemur 10.0898 16.8026 22.9106
rtibia 12.8245
rfoot -23.3599 -24.6072
rtoes -12.5381
lfemur -1.55975 -17.4067 -17.1687
ltibia 29.7777
lfoot -22.5464 4.39712
ltoes -14.683
181
root 2.71552 17.6149 17.1152 -5.71323 12.2886 -1.56821
lowerback 7.79097 1.70682 3.76584
upperback 0.699273 2.4434 -4.57485
thorax -3.28461 1.14669 -7.18084
lowerneck 3.84933 -5.57384 -3.05575
upperneck 18.6332 -8.05647 3.9728
head 5.27314 -3.89798 1.46495
rclavicle 2.74944e-014 -1.74931e-014
rhumerus 33.6042 -0.550619 -54.3401
rradius 57.9444
rwrist -1.85587
rhand -20.6855 13.1457
rfingers 7.12502
rthumb 5.67799 -16.7582
lclavicle 2.74944e-014 -1.74931e-014
lhumerus -38.367 41.6594 57.9422
lradius 16.9342
lwrist -42.9703
lhand -11.2384 -6.03637
lfingers 7.12502
lthumb 14.7908 23.4158
rfemur 10.0865 16.9103 22.9125
rtibia 12.8295
rfoot -23.3586 -24.5913
rtoes -12.5917
lfemur -1.51343 -17.3714 -17.1878
ltibia 29.765
lfoot -22.5703 4.45357
ltoes -14.5853
182
root 2.72012 17.6144 17.1147 -5.71392 12.1708 -1.55475
lowerback 7.76087 1.62885 3.69973
upperback 0.739635 2.33484 -4.52888
thorax -3.24654 1.09562 -7.08017
lowerneck 3.86011 -5.48462 -3.04776
upperneck 18.6844 -7.92314 3.87621
head 5.27804 -3.8376 1.43905
rclavicle -1.98785e-016 3.18055e-015
rhumerus 32.4352 -0.23409 -54.2077
rradius 60.1118
rwrist -2.655
rhand -20.535 13.3957
rfingers 7.12502
rthumb 5.82332 -16.5042
lclavicle -1.98785e-016 3.18055e-015
lhumerus -38.0935 41.238 58.4341
lradius 17.0601
lwrist -42.3235
lhand -11.1917 -6.03308
lfingers 7.12502
lthumb 14.8358 23.4158
rfemur 10.0714 16.983 22.8855
rtibia 12.8471
rfoot -23.3353 -24.5461
rtoes -12.5499
lfemur -1.46758 -17.3429 -17.2258
ltibia 29.7444
lfoot -22.5754 4.51742
ltoes -14.4386
183
root 2.7237 17.6138 17.1142 -5.7197 12.0544 -1.55453
lowerback 7.74424 1.5561 3.64056
upperback 0.768135 2.23403 -4.4794
thorax -3.2267 1.04737 -6.98166
lowerneck 3.91271 -5.39339 -3.0382
upperneck 18.719 -7.78951 3.79683
head 5.27154 -3.77676 1.41972
rclavicle 3.24764e-014 -3.18055e-014
rhumerus 31.213 0.111933 -54.0337
rradius 62.3148
rwrist -3.43716
rhand -20.4483 13.5679
rfingers 7.12502
rthumb 5.90704 -16.3298
lclavicle 3.24764e-014 -3.18055e-014
lhumerus -37.8841 40.8574 58.8661
lradius 17.1947
lwrist -41.7231
lhand -11.1433 -6.04961
lfingers 7.12502
lthumb 14.8824 23.3958
rfemur 10.0696 17.0635 22.8802
rtibia 12.8433
rfoot -23.3152 -24.5148
rtoes -12.5609
lfemur -1.42431 -17.3078 -17.2432
ltibia 29.7338
lfoot -22.5985 4.58141
ltoes -14.3476
